HIERARCHY
ROOT Hips
{
	OFFSET 0.000000 100.481300 0.000000
	CHANNELS 6 Xposition Yposition Zposition Xrotation Yrotation Zrotation
	JOINT Spine
	{
		OFFSET -0.279200 12.230698 -2.892100
		CHANNELS 3 Xrotation Yrotation Zrotation
		JOINT Spine1
		{
			OFFSET -0.325700 14.269203 -3.374200
			CHANNELS 3 Xrotation Yrotation Zrotation
			JOINT Spine2
			{
				OFFSET -0.372300 16.307602 -0.352600
				CHANNELS 3 Xrotation Yrotation Zrotation
				JOINT Neck
				{
					OFFSET -0.418800 17.814194 8.416900
					CHANNELS 3 Xrotation Yrotation Zrotation
					JOINT Head
					{
						OFFSET 0.000000 7.031097 3.806800
						CHANNELS 3 Xrotation Yrotation Zrotation
						JOINT HeadTop_End
						{
							OFFSET 0.000000 24.646606 12.978600
							CHANNELS 3 Xrotation Yrotation Zrotation
							End Site
							{
								OFFSET 0.000000 27.854965 0.000000
							}
						}
					}
				}
				JOINT LeftShoulder
				{
					OFFSET 16.952999 14.495407 -7.737500
					CHANNELS 3 Xrotation Yrotation Zrotation
					JOINT LeftArm
					{
						OFFSET 9.308998 -2.777710 0.208600
						CHANNELS 3 Xrotation Yrotation Zrotation
						JOINT LeftForeArm
						{
							OFFSET 29.972298 0.000000 0.000000
							CHANNELS 3 Xrotation Yrotation Zrotation
							JOINT LeftHand
							{
								OFFSET 26.026505 0.000000 0.000000
								CHANNELS 3 Xrotation Yrotation Zrotation
								JOINT LeftHandThumb1
								{
									OFFSET 12.240501 -7.147949 9.207150
									CHANNELS 3 Xrotation Yrotation Zrotation
									JOINT LeftHandThumb2
									{
										OFFSET 4.138618 -2.389435 2.389433
										CHANNELS 3 Xrotation Yrotation Zrotation
										JOINT LeftHandThumb3
										{
											OFFSET 2.726913 -1.574387 1.574386
											CHANNELS 3 Xrotation Yrotation Zrotation
											JOINT LeftHandThumb4
											{
												OFFSET 3.941010 -2.275345 2.275342
												CHANNELS 3 Xrotation Yrotation Zrotation
												End Site
												{
													OFFSET -0.005798 5.087799 0.009903
												}
											}
										}
									}
								}
								JOINT LeftHandIndex1
								{
									OFFSET 24.424698 -1.985611 5.953459
									CHANNELS 3 Xrotation Yrotation Zrotation
									JOINT LeftHandIndex2
									{
										OFFSET 6.426697 0.000000 0.000000
										CHANNELS 3 Xrotation Yrotation Zrotation
										JOINT LeftHandIndex3
										{
											OFFSET 5.337898 0.000000 0.000000
											CHANNELS 3 Xrotation Yrotation Zrotation
											JOINT LeftHandIndex4
											{
												OFFSET 4.409401 0.000000 0.000000
												CHANNELS 3 Xrotation Yrotation Zrotation
												End Site
												{
													OFFSET 0.000000 4.409363 0.014373
												}
											}
										}
									}
								}
								JOINT LeftHandMiddle1
								{
									OFFSET 23.810104 0.000000 0.000000
									CHANNELS 3 Xrotation Yrotation Zrotation
									JOINT LeftHandMiddle2
									{
										OFFSET 7.176498 0.000000 0.000000
										CHANNELS 3 Xrotation Yrotation Zrotation
										JOINT LeftHandMiddle3
										{
											OFFSET 6.774902 0.000000 0.000000
											CHANNELS 3 Xrotation Yrotation Zrotation
											JOINT LeftHandMiddle4
											{
												OFFSET 5.403328 0.000000 0.000000
												CHANNELS 3 Xrotation Yrotation Zrotation
												End Site
												{
													OFFSET -0.027702 5.403244 0.017414
												}
											}
										}
									}
								}
								JOINT LeftHandRing1
								{
									OFFSET 22.908401 -0.839279 -6.020567
									CHANNELS 3 Xrotation Yrotation Zrotation
									JOINT LeftHandRing2
									{
										OFFSET 6.337502 0.000000 0.000000
										CHANNELS 3 Xrotation Yrotation Zrotation
										JOINT LeftHandRing3
										{
											OFFSET 5.779297 0.000000 0.000000
											CHANNELS 3 Xrotation Yrotation Zrotation
											JOINT LeftHandRing4
											{
												OFFSET 4.965698 0.000000 0.000000
												CHANNELS 3 Xrotation Yrotation Zrotation
												End Site
												{
													OFFSET 0.000000 4.965668 0.016186
												}
											}
										}
									}
								}
								JOINT LeftHandPinky1
								{
									OFFSET 20.037003 -1.530319 -10.950146
									CHANNELS 3 Xrotation Yrotation Zrotation
									JOINT LeftHandPinky2
									{
										OFFSET 5.254700 0.000000 0.000000
										CHANNELS 3 Xrotation Yrotation Zrotation
										JOINT LeftHandPinky3
										{
											OFFSET 4.810204 0.000000 0.000000
											CHANNELS 3 Xrotation Yrotation Zrotation
											JOINT LeftHandPinky4
											{
												OFFSET 3.647202 0.000000 0.000000
												CHANNELS 3 Xrotation Yrotation Zrotation
												End Site
												{
													OFFSET 0.000000 3.647186 0.011889
												}
											}
										}
									}
								}
							}
						}
					}
				}
				JOINT RightShoulder
				{
					OFFSET -15.141001 14.495407 -7.737500
					CHANNELS 3 Xrotation Yrotation Zrotation
					JOINT RightArm
					{
						OFFSET -9.308998 -2.777710 0.208500
						CHANNELS 3 Xrotation Yrotation Zrotation
						JOINT RightForeArm
						{
							OFFSET -29.972300 0.000000 0.000000
							CHANNELS 3 Xrotation Yrotation Zrotation
							JOINT RightHand
							{
								OFFSET -26.026505 0.000000 0.000000
								CHANNELS 3 Xrotation Yrotation Zrotation
								JOINT RightHandThumb1
								{
									OFFSET -12.240601 -7.148026 9.207092
									CHANNELS 3 Xrotation Yrotation Zrotation
									JOINT RightHandThumb2
									{
										OFFSET -4.138618 -2.389435 2.389433
										CHANNELS 3 Xrotation Yrotation Zrotation
										JOINT RightHandThumb3
										{
											OFFSET -2.726974 -1.574417 1.574421
											CHANNELS 3 Xrotation Yrotation Zrotation
											JOINT RightHandThumb4
											{
												OFFSET -3.941010 -2.275345 2.275343
												CHANNELS 3 Xrotation Yrotation Zrotation
												End Site
												{
													OFFSET 0.005814 5.087799 0.009927
												}
											}
										}
									}
								}
								JOINT RightHandIndex1
								{
									OFFSET -24.424698 -1.985657 5.953444
									CHANNELS 3 Xrotation Yrotation Zrotation
									JOINT RightHandIndex2
									{
										OFFSET -6.426697 0.000000 0.000000
										CHANNELS 3 Xrotation Yrotation Zrotation
										JOINT RightHandIndex3
										{
											OFFSET -5.337898 0.000000 0.000000
											CHANNELS 3 Xrotation Yrotation Zrotation
											JOINT RightHandIndex4
											{
												OFFSET -4.409401 0.000000 0.000000
												CHANNELS 3 Xrotation Yrotation Zrotation
												End Site
												{
													OFFSET 0.000000 4.409363 0.014408
												}
											}
										}
									}
								}
								JOINT RightHandMiddle1
								{
									OFFSET -23.810097 0.000000 0.000000
									CHANNELS 3 Xrotation Yrotation Zrotation
									JOINT RightHandMiddle2
									{
										OFFSET -7.176498 0.000000 0.000000
										CHANNELS 3 Xrotation Yrotation Zrotation
										JOINT RightHandMiddle3
										{
											OFFSET -6.774902 0.000000 0.000000
											CHANNELS 3 Xrotation Yrotation Zrotation
											JOINT RightHandMiddle4
											{
												OFFSET -5.403328 0.000000 0.000000
												CHANNELS 3 Xrotation Yrotation Zrotation
												End Site
												{
													OFFSET 0.027702 5.403244 0.017457
												}
											}
										}
									}
								}
								JOINT RightHandRing1
								{
									OFFSET -22.908302 -0.839325 -6.020576
									CHANNELS 3 Xrotation Yrotation Zrotation
									JOINT RightHandRing2
									{
										OFFSET -6.337502 0.000000 0.000000
										CHANNELS 3 Xrotation Yrotation Zrotation
										JOINT RightHandRing3
										{
											OFFSET -5.779297 0.000000 0.000000
											CHANNELS 3 Xrotation Yrotation Zrotation
											JOINT RightHandRing4
											{
												OFFSET -4.965698 0.000000 0.000000
												CHANNELS 3 Xrotation Yrotation Zrotation
												End Site
												{
													OFFSET 0.000000 4.965668 0.016226
												}
											}
										}
									}
								}
								JOINT RightHandPinky1
								{
									OFFSET -20.037003 -1.530334 -10.950259
									CHANNELS 3 Xrotation Yrotation Zrotation
									JOINT RightHandPinky2
									{
										OFFSET -5.254700 0.000000 0.000000
										CHANNELS 3 Xrotation Yrotation Zrotation
										JOINT RightHandPinky3
										{
											OFFSET -4.810204 0.000000 0.000000
											CHANNELS 3 Xrotation Yrotation Zrotation
											JOINT RightHandPinky4
											{
												OFFSET -3.647202 0.000000 0.000000
												CHANNELS 3 Xrotation Yrotation Zrotation
												End Site
												{
													OFFSET 0.000000 3.647186 0.011917
												}
											}
										}
									}
								}
							}
						}
					}
				}
			}
		}
	}
	JOINT LeftUpLeg
	{
		OFFSET 15.427100 -6.655098 0.678600
		CHANNELS 3 Xrotation Yrotation Zrotation
		JOINT LeftLeg
		{
			OFFSET 4.081073 -39.591068 13.024000
			CHANNELS 3 Xrotation Yrotation Zrotation
			JOINT LeftFoot
			{
				OFFSET -4.081074 -37.707932 -15.979700
				CHANNELS 3 Xrotation Yrotation Zrotation
				JOINT LeftToeBase
				{
					OFFSET 5.346399 -15.068900 20.645000
					CHANNELS 3 Xrotation Yrotation Zrotation
					JOINT LeftToe_End
					{
						OFFSET 2.754700 0.931300 11.300900
						CHANNELS 3 Xrotation Yrotation Zrotation
						End Site
						{
							OFFSET 0.000000 11.669021 0.000000
						}
					}
				}
			}
		}
	}
	JOINT RightUpLeg
	{
		OFFSET -15.569500 -6.655098 0.678600
		CHANNELS 3 Xrotation Yrotation Zrotation
		JOINT RightLeg
		{
			OFFSET -4.081825 -39.591045 13.023800
			CHANNELS 3 Xrotation Yrotation Zrotation
			JOINT RightFoot
			{
				OFFSET 4.081824 -37.707954 -15.979600
				CHANNELS 3 Xrotation Yrotation Zrotation
				JOINT RightToeBase
				{
					OFFSET -5.346400 -15.068900 20.645000
					CHANNELS 3 Xrotation Yrotation Zrotation
					JOINT RightToe_End
					{
						OFFSET -2.754700 0.931300 11.300900
						CHANNELS 3 Xrotation Yrotation Zrotation
						End Site
						{
							OFFSET 0.000000 11.669021 0.000000
						}
					}
				}
			}
		}
	}
}
MOTION
Frames: 4
Frame Time: 0.033333
-2.690540 89.690292 54.873100 -8.279827 12.801403 3.995734 2.877613 0.307479 -0.582116 5.994002 0.182000 0.631982 5.992650 0.227174 0.585794 -4.121006 -2.046523 -0.653968 -12.038979 -10.804829 -1.004293 -0.000000 -0.000000 -0.000000 0.836599 0.797810 -10.232929 8.250360 2.566622 -56.279430 -0.000001 -49.734617 -0.000003 9.931927 -18.600676 18.241743 -1.540042 3.690198 6.142351 3.939052 7.948700 0.746809 -0.579467 1.575001 2.538721 0.000001 -0.000001 -0.000001 0.040825 0.750251 -6.229530 0.040828 0.750257 -6.229524 0.010220 0.375689 -3.114627 0.000001 -0.000001 0.000001 0.040612 0.748330 -6.213552 0.041045 0.752184 -6.245492 0.010204 0.375685 -3.114639 -0.000002 0.000002 0.000004 0.040825 0.750251 -6.229530 0.040826 0.750255 -6.229527 0.010228 0.375692 -3.114616 0.000002 -0.000000 0.000002 0.463922 4.782481 -5.739542 0.029509 -3.304392 -6.737269 0.010214 0.375691 -3.114617 -0.000000 0.000001 -0.000000 2.928510 14.194797 10.994906 -17.603863 -25.031921 66.187757 -0.000005 30.651242 0.000005 -8.601265 -0.000375 -0.860781 -1.849254 -3.581800 -6.586121 4.637203 -8.634121 -0.225417 -1.273763 0.137311 -2.094859 -0.000002 0.000002 -0.000001 0.101014 -1.183286 9.758138 0.101005 -1.183290 9.758149 0.025295 -0.593795 4.878545 0.000001 -0.000001 0.000001 0.101014 -1.183286 9.758137 0.101005 -1.183291 9.758146 0.025297 -0.593795 4.878548 0.000001 -0.000000 -0.000000 0.101015 -1.183293 9.758134 0.101005 -1.183287 9.758149 0.025294 -0.593793 4.878544 -0.000001 0.000001 0.000000 0.101014 -1.183286 9.758137 0.101005 -1.183293 9.758147 0.025296 -0.593796 4.878542 0.000000 0.000002 0.000001 -26.041653 7.940922 18.894120 15.533568 9.046150 -0.600019 -18.036469 11.660384 -3.906770 0.000000 -0.000015 -0.000004 -0.000003 0.000001 -0.000000 3.283711 -8.720607 -1.948617 29.287633 -6.506337 1.318204 -24.798954 -1.242582 0.653948 -0.754889 -0.000002 0.000000 -0.000000 -0.000000 0.000000 
-2.231352 89.655014 56.687794 -8.040641 12.177300 3.389651 2.616479 0.266387 -0.536271 5.485951 0.034632 0.786895 5.485571 0.077245 0.657412 -4.062009 -1.877366 -0.734222 -10.753236 -10.140328 -0.685707 -0.000000 0.000000 0.000000 0.841621 0.862134 -10.439519 8.658929 2.420787 -55.833129 -0.000009 -49.248352 -0.000010 10.189175 -19.652486 18.592864 -1.540038 3.690195 6.142349 3.939054 7.948704 0.746812 -0.579472 1.575000 2.538724 0.000000 0.000001 -0.000001 0.025188 0.589626 -4.891937 0.025187 0.589622 -4.891939 0.006299 0.295075 -2.445897 0.000002 -0.000001 -0.000001 0.025019 0.587695 -4.875957 0.025359 0.591550 -4.907917 0.006306 0.295073 -2.445897 -0.000002 0.000003 -0.000000 0.025188 0.589626 -4.891936 0.025191 0.589624 -4.891938 0.006312 0.295085 -2.445885 -0.000000 -0.000002 0.000002 0.353722 4.630621 -4.396490 0.012409 -3.464879 -5.400868 0.006311 0.295079 -2.445897 0.000002 -0.000000 0.000002 2.869876 13.720540 11.074026 -16.672978 -24.824326 68.157037 -0.000005 30.633146 0.000015 -8.586264 -0.014132 -0.781151 -1.849254 -3.581797 -6.586117 4.637202 -8.634122 -0.225418 -1.273763 0.137312 -2.094858 -0.000000 0.000000 0.000001 0.107423 -1.219995 10.063983 0.107424 -1.219991 10.064020 0.026903 -0.612356 5.031432 -0.000000 -0.000001 0.000001 0.107423 -1.219995 10.063982 0.107425 -1.219997 10.064019 0.026905 -0.612360 5.031428 0.000000 0.000000 -0.000004 0.107421 -1.219998 10.063991 0.107427 -1.219992 10.064011 0.026902 -0.612354 5.031434 0.000001 -0.000001 0.000000 0.107423 -1.219995 10.063982 0.107424 -1.219994 10.064018 0.026904 -0.612353 5.031431 0.000001 -0.000000 0.000002 -26.302174 7.748219 19.850218 16.008381 9.157715 -0.446773 -17.628995 11.716952 -4.353364 0.000001 -0.000019 -0.000006 -0.000003 0.000001 0.000002 4.987545 -8.406060 -1.220622 28.310813 -6.625743 0.878545 -25.618645 -0.999552 1.232345 -0.696258 0.000000 0.000000 0.000000 -0.000000 0.000000 
-1.760704 89.645905 58.514015 -7.363314 11.568857 2.958310 2.261494 0.164924 -0.542121 4.793472 -0.202626 0.963197 4.794141 -0.161295 0.724884 -4.102604 -1.683080 -0.819867 -9.246766 -9.412560 -0.129710 -0.000001 0.000000 0.000000 0.830113 1.127629 -10.716078 8.419298 1.521192 -55.222394 0.000021 -48.866254 0.000030 10.897159 -20.724814 19.008447 -1.540040 3.690195 6.142351 3.939048 7.948703 0.746811 -0.579472 1.575002 2.538722 -0.000001 0.000002 0.000000 0.015116 0.456950 -3.789375 0.015096 0.456945 -3.789397 0.003798 0.228609 -1.894647 -0.000002 -0.000000 0.000001 0.014971 0.455020 -3.773425 0.015251 0.458892 -3.805338 0.003796 0.228611 -1.894654 -0.000001 0.000001 0.000002 0.015116 0.456950 -3.789375 0.015090 0.456945 -3.789398 0.003807 0.228614 -1.894639 0.000000 -0.000000 -0.000000 0.265604 4.503519 -3.289791 0.001142 -3.597453 -4.299105 0.003780 0.228600 -1.894669 0.000000 0.000001 -0.000001 2.821266 13.369988 11.109548 -15.789142 -24.372024 69.873211 0.000007 30.105517 -0.000012 -8.582282 -0.064511 -0.453172 -1.849253 -3.581801 -6.586120 4.637202 -8.634125 -0.225418 -1.273764 0.137308 -2.094859 -0.000001 0.000000 -0.000001 0.113688 -1.254739 10.353829 0.113684 -1.254729 10.353821 0.028477 -0.629934 5.176284 -0.000000 0.000001 -0.000002 0.113689 -1.254739 10.353829 0.113685 -1.254731 10.353821 0.028475 -0.629936 5.176288 -0.000000 0.000000 -0.000000 0.113686 -1.254739 10.353831 0.113686 -1.254729 10.353818 0.028475 -0.629934 5.176284 0.000000 0.000001 -0.000001 0.113688 -1.254739 10.353829 0.113684 -1.254732 10.353821 0.028475 -0.629934 5.176281 0.000001 -0.000002 -0.000000 -26.812674 7.453237 20.587525 16.416196 9.083103 -0.415706 -15.846416 12.104188 -5.067655 -0.000002 -0.000018 -0.000004 -0.000003 0.000001 0.000001 6.148619 -8.216455 -0.833679 27.370498 -6.599875 0.431255 -26.420292 -0.768377 1.794265 -0.425763 -0.000002 -0.000000 -0.000000 0.000000 0.000000 
-1.303472 89.665436 60.316227 -6.447494 10.984473 2.769625 1.860903 -0.014308 -0.605053 4.014204 -0.567902 1.153735 4.015933 -0.525547 0.798733 -4.308217 -1.497384 -1.033735 -7.687767 -8.726175 0.431798 -0.000001 0.000000 -0.000000 0.799771 1.635062 -11.029783 7.490359 0.210688 -54.592582 -0.000006 -48.509940 -0.000007 11.640484 -21.711423 19.568736 -1.540041 3.690200 6.142355 3.939055 7.948704 0.746812 -0.579471 1.575002 2.538725 0.000001 -0.000000 0.000002 0.010235 0.376217 -3.119187 0.010252 0.376236 -3.119179 0.002556 0.188185 -1.559572 0.000000 0.000002 0.000000 0.010129 0.374291 -3.103193 0.010347 0.378156 -3.135187 0.002561 0.188190 -1.559561 0.000000 0.000001 0.000001 0.010235 0.376217 -3.119187 0.010249 0.376235 -3.119179 0.002559 0.188178 -1.559568 0.000002 0.000001 0.000000 0.213257 4.425440 -2.617256 -0.004470 -3.678135 -3.629303 0.002568 0.188193 -1.559561 0.000002 0.000002 -0.000002 2.790699 13.159147 11.133157 -15.148525 -23.899494 71.240895 0.000000 29.247041 -0.000006 -8.572125 -0.109860 -0.148081 -1.849253 -3.581800 -6.586120 4.637203 -8.634121 -0.225418 -1.273764 0.137310 -2.094859 0.000001 0.000002 -0.000000 0.119150 -1.284293 10.600491 0.119148 -1.284284 10.600495 0.029845 -0.644898 5.299583 0.000000 -0.000001 -0.000002 0.119150 -1.284293 10.600490 0.119150 -1.284282 10.600494 0.029842 -0.644902 5.299582 0.000001 0.000005 0.000002 0.119147 -1.284298 10.600501 0.119156 -1.284276 10.600486 0.029842 -0.644899 5.299578 0.000000 -0.000003 0.000001 0.119150 -1.284293 10.600491 0.119150 -1.284282 10.600494 0.029842 -0.644899 5.299579 -0.000001 0.000001 -0.000000 -27.319717 7.220353 20.982753 16.842767 8.924596 -0.494256 -13.011171 12.905771 -5.674334 0.000002 -0.000019 -0.000006 -0.000003 0.000000 -0.000000 6.947165 -8.231735 -0.786090 26.459977 -6.295553 0.019117 -27.184973 -0.615520 2.231084 -0.236482 -0.000002 -0.000000 0.000000 0.000000 0.000000 
